<svg width="14" height="15" viewBox="0 0 14 15" fill="none" xmlns="http://www.w3.org/2000/svg">
<path d="M10.7547 4.90002C11.8317 4.90002 12.7047 4.02697 12.7047 2.95001C12.7047 1.87305 11.8317 1 10.7547 1C9.67774 1 8.80469 1.87305 8.80469 2.95001C8.80469 4.02697 9.67774 4.90002 10.7547 4.90002Z" stroke="#121212" stroke-width="1.5" stroke-linecap="round" stroke-linejoin="round"/>
<path d="M2.95001 9.45032C4.02697 9.45032 4.90002 8.57727 4.90002 7.5003C4.90002 6.42334 4.02697 5.55029 2.95001 5.55029C1.87305 5.55029 1 6.42334 1 7.5003C1 8.57727 1.87305 9.45032 2.95001 9.45032Z" stroke="#121212" stroke-width="1.5" stroke-linecap="round" stroke-linejoin="round"/>
<path d="M10.7547 14.0001C11.8317 14.0001 12.7047 13.1271 12.7047 12.0501C12.7047 10.9731 11.8317 10.1001 10.7547 10.1001C9.67774 10.1001 8.80469 10.9731 8.80469 12.0501C8.80469 13.1271 9.67774 14.0001 10.7547 14.0001Z" stroke="#121212" stroke-width="1.5" stroke-linecap="round" stroke-linejoin="round"/>
<path d="M4.63672 8.48145L9.07625 11.0685" stroke="#121212" stroke-width="1.5" stroke-linecap="round" stroke-linejoin="round"/>
<path d="M9.06975 3.9314L4.63672 6.51841" stroke="#121212" stroke-width="1.5" stroke-linecap="round" stroke-linejoin="round"/>
</svg>
