<svg width="17" height="18" viewBox="0 0 17 18" fill="none" xmlns="http://www.w3.org/2000/svg">
<path d="M12.8516 5.80003C14.1611 5.80003 15.2227 4.7255 15.2227 3.40001C15.2227 2.07452 14.1611 1 12.8516 1C11.542 1 10.4805 2.07452 10.4805 3.40001C10.4805 4.7255 11.542 5.80003 12.8516 5.80003Z" stroke="black" stroke-width="2" stroke-linecap="round" stroke-linejoin="round"/>
<path d="M3.3711 11.4006C4.68063 11.4006 5.74221 10.3261 5.74221 9.0006C5.74221 7.67511 4.68063 6.60059 3.3711 6.60059C2.06158 6.60059 1 7.67511 1 9.0006C1 10.3261 2.06158 11.4006 3.3711 11.4006Z" stroke="black" stroke-width="2" stroke-linecap="round" stroke-linejoin="round"/>
<path d="M12.8516 17.0002C14.1611 17.0002 15.2227 15.9257 15.2227 14.6002C15.2227 13.2747 14.1611 12.2002 12.8516 12.2002C11.542 12.2002 10.4805 13.2747 10.4805 14.6002C10.4805 15.9257 11.542 17.0002 12.8516 17.0002Z" stroke="black" stroke-width="2" stroke-linecap="round" stroke-linejoin="round"/>
<path d="M5.41406 10.208L10.8123 13.392" stroke="black" stroke-width="2" stroke-linecap="round" stroke-linejoin="round"/>
<path d="M10.8044 4.6084L5.41406 7.79242" stroke="black" stroke-width="2" stroke-linecap="round" stroke-linejoin="round"/>
</svg>
