<svg width="15" height="15" viewBox="0 0 15 15" fill="none" xmlns="http://www.w3.org/2000/svg">
<path d="M10.2599 4.7373C11.5161 4.7373 12.7208 5.23632 13.6091 6.12458C14.4973 7.01283 14.9963 8.21757 14.9963 9.47375V14.9996H11.8387V9.47375C11.8387 9.05502 11.6724 8.65344 11.3763 8.35736C11.0802 8.06127 10.6786 7.89493 10.2599 7.89493C9.84115 7.89493 9.43958 8.06127 9.14349 8.35736C8.84741 8.65344 8.68107 9.05502 8.68107 9.47375V14.9996H5.52344V9.47375C5.52344 8.21757 6.02245 7.01283 6.91071 6.12458C7.79897 5.23632 9.0037 4.7373 10.2599 4.7373Z" fill="#19191A"/>
<path d="M3.15763 5.52734H0V15.0002H3.15763V5.52734Z" fill="#19191A"/>
<path d="M1.57881 3.15763C2.45077 3.15763 3.15763 2.45077 3.15763 1.57881C3.15763 0.706859 2.45077 0 1.57881 0C0.706859 0 0 0.706859 0 1.57881C0 2.45077 0.706859 3.15763 1.57881 3.15763Z" fill="#19191A"/>
</svg>
