<svg width="16" height="16" viewBox="0 0 16 16" fill="none" xmlns="http://www.w3.org/2000/svg">
<path d="M15.7767 7.42864C15.9198 7.58033 16 7.78521 16 7.99872C16 8.21223 15.9198 8.41711 15.7767 8.56882L8.92138 15.77C8.77516 15.9169 8.58094 15.9992 8.37867 16C8.27759 15.9995 8.17746 15.9793 8.08351 15.9399C7.94489 15.8789 7.8266 15.7759 7.74358 15.6441C7.66056 15.5124 7.61651 15.3579 7.61698 15.1999V8.79885H0.761697C0.559684 8.79885 0.365942 8.71456 0.223096 8.5645C0.0802502 8.41444 0 8.21094 0 7.99872C0 7.78652 0.0802502 7.583 0.223096 7.43295C0.365942 7.28289 0.559684 7.1986 0.761697 7.1986H7.61698V0.797552C7.61651 0.639587 7.66056 0.485009 7.74358 0.3533C7.8266 0.22159 7.94489 0.118642 8.08351 0.0574314C8.2242 -0.000213911 8.37756 -0.0148385 8.52585 0.0152518C8.67412 0.0453405 8.81125 0.118914 8.92138 0.22746L15.7767 7.42864Z" fill="#19191A"/>
</svg>
