<svg width="10" height="10" viewBox="0 0 10 10" fill="none" xmlns="http://www.w3.org/2000/svg">
<path d="M9.86041 4.6429C9.94985 4.7377 10 4.86575 10 4.9992C10 5.13264 9.94985 5.2607 9.86041 5.35551L5.57586 9.85624C5.48448 9.94804 5.36309 9.99948 5.23667 10C5.17349 9.99969 5.11092 9.98704 5.0522 9.96246C4.96556 9.9243 4.89163 9.85991 4.83974 9.77759C4.78785 9.69527 4.76032 9.59866 4.76061 9.49994V5.49928H0.476061C0.349802 5.49928 0.228714 5.4466 0.139435 5.35281C0.0501564 5.25903 0 5.13183 0 4.9992C0 4.86657 0.0501564 4.73937 0.139435 4.64559C0.228714 4.55181 0.349802 4.49912 0.476061 4.49912H4.76061V0.49847C4.76032 0.399742 4.78785 0.303131 4.83974 0.220813C4.89163 0.138494 4.96556 0.0741515 5.0522 0.0358946C5.14013 -0.000133693 5.23598 -0.00927405 5.32865 0.00953239C5.42132 0.0283378 5.50703 0.0743215 5.57586 0.142163L9.86041 4.6429Z" fill="#19191A"/>
</svg>
