<svg width="17" height="17" viewBox="0 0 17 17" fill="none" xmlns="http://www.w3.org/2000/svg">
<path d="M16.2434 8.16465C16.3866 8.31677 16.4668 8.52224 16.4668 8.73637C16.4668 8.9505 16.3866 9.15597 16.2434 9.30811L9.38818 16.53C9.24196 16.6773 9.04774 16.7599 8.84546 16.7607C8.74439 16.7602 8.64426 16.7399 8.55031 16.7005C8.41169 16.6392 8.2934 16.5359 8.21038 16.4038C8.12736 16.2717 8.0833 16.1167 8.08378 15.9583V9.53881H1.22849C1.02648 9.53881 0.832739 9.45428 0.689893 9.30378C0.547047 9.15329 0.466797 8.9492 0.466797 8.73637C0.466797 8.52356 0.547047 8.31945 0.689893 8.16897C0.832739 8.01848 1.02648 7.93395 1.22849 7.93395H8.08378V1.51445C8.0833 1.35603 8.12736 1.20101 8.21038 1.06892C8.2934 0.936828 8.41169 0.833584 8.55031 0.772196C8.691 0.714385 8.84436 0.699718 8.99264 0.729895C9.14092 0.760071 9.27805 0.833857 9.38818 0.942715L16.2434 8.16465Z" fill="#19191A"/>
</svg>
