<svg width="13" height="44" viewBox="0 0 13 44" fill="none" xmlns="http://www.w3.org/2000/svg">
<path d="M12.5117 42.6396C11.0306 41.4515 9.77734 40.0924 8.75195 38.5625C7.71029 37.0326 6.87207 35.3887 6.2373 33.6309C5.58626 31.8568 5.1224 29.9932 4.8457 28.04C4.55273 26.0869 4.40625 24.0768 4.40625 22.0098C4.40625 19.9264 4.55273 17.8919 4.8457 15.9062C5.13867 13.9206 5.61882 12.0407 6.28613 10.2666C6.93717 8.47624 7.7998 6.81608 8.87402 5.28613C9.93197 3.73991 11.2259 2.36458 12.7559 1.16016L12.0967 0.500977C10.4202 1.68913 8.86589 3.06445 7.43359 4.62695C6.0013 6.18945 4.76432 7.8903 3.72266 9.72949C2.68099 11.5524 1.86719 13.5055 1.28125 15.5889C0.695312 17.6559 0.402344 19.7962 0.402344 22.0098C0.402344 24.1908 0.687174 26.3066 1.25684 28.3574C1.8265 30.3919 2.62402 32.3206 3.64941 34.1436C4.65853 35.9665 5.86296 37.651 7.2627 39.1973C8.66243 40.7435 10.1924 42.1107 11.8525 43.2988L12.5117 42.6396Z" fill="#4F4F56"/>
</svg>
