<svg width="16" height="16" viewBox="0 0 16 16" fill="none" xmlns="http://www.w3.org/2000/svg">
<path d="M9.67161 3.68095C10.3263 3.80867 10.9279 4.12884 11.3995 4.60047C11.8712 5.0721 12.1913 5.67374 12.319 6.32839M9.67161 1C11.0317 1.1511 12.3 1.76017 13.2683 2.72721C14.2365 3.69425 14.8472 4.96178 15 6.32169M14.3298 11.6702V13.6809C14.3305 13.8676 14.2923 14.0523 14.2175 14.2233C14.1427 14.3944 14.033 14.5479 13.8955 14.6741C13.758 14.8003 13.5956 14.8964 13.4187 14.9562C13.2419 15.016 13.0546 15.0382 12.8686 15.0214C10.8062 14.7973 8.8251 14.0925 7.08449 12.9637C5.46509 11.9347 4.09211 10.5617 3.06307 8.94232C1.93035 7.1938 1.22544 5.20306 1.00544 3.13136C0.988691 2.94601 1.01072 2.75921 1.07012 2.58285C1.12952 2.40649 1.22499 2.24442 1.35046 2.10698C1.47592 1.96953 1.62863 1.85972 1.79886 1.78453C1.96909 1.70934 2.15312 1.67041 2.33921 1.67024H4.34993C4.6752 1.66704 4.99053 1.78222 5.23716 1.99432C5.48379 2.20642 5.64488 2.50096 5.6904 2.82305C5.77527 3.46652 5.93266 4.09833 6.15957 4.70641C6.24974 4.94631 6.26926 5.20702 6.2158 5.45767C6.16235 5.70832 6.03816 5.93838 5.85796 6.12062L5.00676 6.97182C5.96088 8.64979 7.35021 10.0391 9.02818 10.9932L9.87939 10.142C10.0616 9.96184 10.2917 9.83765 10.5423 9.7842C10.793 9.73074 11.0537 9.75026 11.2936 9.84043C11.9017 10.0673 12.5335 10.2247 13.177 10.3096C13.5025 10.3555 13.7999 10.5195 14.0124 10.7704C14.225 11.0212 14.3379 11.3415 14.3298 11.6702Z" stroke="white" stroke-width="1.5" stroke-linecap="round" stroke-linejoin="round"/>
</svg>
