<svg width="18" height="20" viewBox="0 0 18 20" fill="none" xmlns="http://www.w3.org/2000/svg">
<path opacity="0.4" d="M13.2649 6.86154C12.868 6.86154 12.5525 6.55157 12.5525 6.16162V4.88177C12.5525 3.90189 12.125 2.962 11.3922 2.30207C10.6391 1.63215 9.67216 1.32219 8.65437 1.41218C6.94449 1.57216 5.44834 3.28196 5.44834 5.06175V5.96164C5.44834 6.3516 5.13283 6.66156 4.73589 6.66156C4.33895 6.66156 4.02344 6.3516 4.02344 5.96164V5.06175C4.02344 2.56204 6.07937 0.252312 8.51188 0.0223391C9.9266 -0.107646 11.2904 0.332303 12.3388 1.27219C13.3769 2.19209 13.9672 3.51193 13.9672 4.88177V6.16162C13.9672 6.55157 13.6517 6.86154 13.2649 6.86154Z" fill="white"/>
<path d="M17.1024 6.9615C16.2474 6.03161 14.8429 5.58167 12.787 5.58167H5.21463C3.1587 5.58167 1.75415 6.03161 0.899211 6.9615C-0.088043 8.04138 -0.0575092 9.48121 0.0544474 10.4811L0.766899 16.0504C0.980634 18.0002 1.78469 20 6.16117 20H11.8404C16.2169 20 17.021 18.0002 17.2347 16.0604L17.9471 10.4711C18.0591 9.48121 18.0795 8.04138 17.1024 6.9615ZM5.35712 11.151H5.34694C4.78716 11.151 4.32915 10.7011 4.32915 10.1511C4.32915 9.60119 4.78716 9.15125 5.34694 9.15125C5.9169 9.15125 6.37491 9.60119 6.37491 10.1511C6.37491 10.7011 5.9169 11.151 5.35712 11.151ZM12.4816 11.151H12.4715C11.9117 11.151 11.4537 10.7011 11.4537 10.1511C11.4537 9.60119 11.9117 9.15125 12.4715 9.15125C13.0414 9.15125 13.4994 9.60119 13.4994 10.1511C13.4994 10.7011 13.0414 11.151 12.4816 11.151Z" fill="white"/>
</svg>
