<svg width="16" height="19" viewBox="0 0 16 19" fill="none" xmlns="http://www.w3.org/2000/svg">
<path d="M15 7.81818C15 13.1212 8 17.6667 8 17.6667C8 17.6667 1 13.1212 1 7.81818C1 6.00989 1.7375 4.27566 3.05025 2.997C4.36301 1.71834 6.14348 1 8 1C9.85652 1 11.637 1.71834 12.9497 2.997C14.2625 4.27566 15 6.00989 15 7.81818Z" stroke="white" stroke-width="1.5" stroke-linecap="round" stroke-linejoin="round"/>
<path d="M7.99935 10.0909C9.28801 10.0909 10.3327 9.07333 10.3327 7.81814C10.3327 6.56294 9.28801 5.54541 7.99935 5.54541C6.71068 5.54541 5.66602 6.56294 5.66602 7.81814C5.66602 9.07333 6.71068 10.0909 7.99935 10.0909Z" stroke="white" stroke-width="1.5" stroke-linecap="round" stroke-linejoin="round"/>
</svg>
