<svg width="160" height="161" viewBox="0 0 160 161" fill="none" xmlns="http://www.w3.org/2000/svg">
<path d="M73.023 3.97715C76.6245 -0.442502 83.3755 -0.442502 86.977 3.97715L88.8998 6.33684C91.6265 9.68311 96.3451 10.6222 100.145 8.57493L102.813 7.13788C107.829 4.43534 114.063 7.01587 115.701 12.4734L116.588 15.4276C117.828 19.5569 121.822 22.227 126.111 21.7943L129.147 21.4881C134.809 20.9169 139.573 25.6784 139.005 31.3408L138.693 34.4529C138.263 38.7355 140.926 42.7227 145.046 43.9669L148.008 44.8612C153.449 46.5041 156.024 52.7165 153.34 57.7265L151.854 60.5019C149.824 64.2914 150.757 68.9873 154.082 71.7123L156.507 73.6991C160.9 77.2998 160.9 84.0202 156.507 87.6209L154.082 89.6077C150.757 92.3327 149.824 97.0286 151.854 100.818L153.34 103.593C156.024 108.604 153.449 114.816 148.008 116.459L145.046 117.353C140.926 118.597 138.263 122.585 138.693 126.867L139.005 129.979C139.573 135.642 134.809 140.403 129.147 139.832L126.111 139.526C121.822 139.093 117.828 141.763 116.588 145.892L115.701 148.847C114.063 154.304 107.829 156.885 102.813 154.182L100.145 152.745C96.3451 150.698 91.6265 151.637 88.8998 154.983L86.9769 157.343C83.3755 161.762 76.6245 161.762 73.023 157.343L71.1002 154.983C68.3735 151.637 63.6549 150.698 59.8547 152.745L57.1873 154.182C52.1708 156.885 45.9372 154.304 44.2988 148.847L43.4119 145.892C42.1722 141.763 38.1783 139.093 33.8887 139.526L30.8534 139.832C25.1913 140.403 20.4271 135.642 20.995 129.979L21.3071 126.867C21.7367 122.585 19.0739 118.597 14.9536 117.353L11.9917 116.459C6.55087 114.816 3.97613 108.604 6.65971 103.593L8.14628 100.818C10.1761 97.0286 9.24252 92.3327 5.91763 89.6077L3.49338 87.6209C-0.900073 84.0202 -0.900072 77.2998 3.49338 73.6991L5.91763 71.7123C9.24252 68.9873 10.1761 64.2914 8.14628 60.5019L6.65971 57.7265C3.97613 52.7165 6.55087 46.5041 11.9917 44.8612L14.9536 43.9669C19.0739 42.7227 21.7367 38.7355 21.3071 34.4529L20.995 31.3408C20.4271 25.6784 25.1913 20.9169 30.8534 21.4881L33.8887 21.7943C38.1783 22.227 42.1722 19.5569 43.4119 15.4275L44.2988 12.4734C45.9372 7.01587 52.1708 4.43534 57.1873 7.13788L59.8547 8.57493C63.6549 10.6222 68.3735 9.68311 71.1002 6.33684L73.023 3.97715Z" fill="white"/>
</svg>
