<svg width="60" height="60" viewBox="0 0 60 60" fill="none" xmlns="http://www.w3.org/2000/svg">
<path d="M55.6452 25.4839C50.3226 25.4839 44.5161 29.3548 30.4839 29.7581C40.3226 19.8387 47.5 18.7903 51.371 14.9194C52.2581 14.0323 52.6613 12.9839 52.6613 12.0968C52.6613 9.67743 50.3226 7.41936 48.0645 7.41936C47.0161 7.41936 45.8065 7.82259 44.9194 8.70969C41.2097 12.5 39.7581 19.2742 30.2419 29.5161C30.1613 15.4839 34.5161 9.51614 34.5161 4.2742C34.5161 1.37097 32.3387 0 30 0C27.8226 0 25.4839 1.37097 25.4839 4.35485C25.4839 9.51614 29.3548 15.4839 29.7581 29.5161C20.2419 19.4355 18.9516 12.5 15.1613 8.70969C14.1935 7.82259 13.1452 7.33872 12.0968 7.33872C9.51613 7.33872 7.33871 9.67743 7.33871 12.0968C7.33871 12.9839 7.74194 14.0323 8.62903 14.9194C12.5 18.9516 19.6774 19.8387 29.5161 29.7581C15.5645 29.3548 9.75806 25.4839 4.51613 25.4839C1.53226 25.4839 0 27.8226 0 30.1613C0 32.3387 1.37097 34.5161 4.27419 34.5161C9.75807 34.5161 15.5645 30.1613 29.5968 30.1613C19.2742 39.7581 12.5 41.2097 8.70968 44.9194C7.82258 45.8065 7.33871 47.0161 7.33871 48.0645C7.33871 50.4839 9.67742 52.6613 12.0968 52.6613C12.9839 52.6613 14.0323 52.2581 14.9194 51.371C18.7903 47.5 19.8387 40.3226 29.7581 30.4839C29.3548 44.5161 25.4839 50.3226 25.4839 55.6452C25.4839 58.629 27.8226 60 30 60C32.3387 60 34.5161 58.629 34.5161 55.7258C34.5161 50.3226 30.1613 44.5161 30.2419 30.4839C40.1613 40.3226 41.2097 47.5 45.0806 51.371C45.9677 52.2581 47.0161 52.6613 47.9032 52.6613C50.3226 52.6613 52.5806 50.3226 52.5806 48.0645C52.5806 47.0161 52.1774 45.8065 51.2903 44.9194C47.5 41.2097 40.7258 39.7581 30.4032 30.1613C44.5161 30.1613 50.3226 34.5161 55.7258 34.5161C58.629 34.5161 60 32.3387 60 30C60 27.8226 58.629 25.4839 55.6452 25.4839Z" fill="#19191A"/>
</svg>
