<svg width="70" height="70" viewBox="0 0 70 70" fill="none" xmlns="http://www.w3.org/2000/svg">
<path fill-rule="evenodd" clip-rule="evenodd" d="M4.67315 4.18505C8.66905 0.252431 15.6462 -0.20759 23.987 2.64683C27.3343 3.79237 30.8591 5.46028 34.4296 7.60815C29.4182 10.648 24.3448 14.5829 19.5492 19.3024C14.7545 24.0212 10.7397 29.0303 7.62052 33.9917C5.53009 30.3877 3.91877 26.8369 2.82686 23.4718C0.105926 15.0866 0.677251 8.11767 4.67315 4.18505ZM7.13398 34.7771C-0.414747 21.9515 -2.04519 9.65169 4.10056 3.60325C10.2464 -2.44528 22.519 -0.618566 35.2227 7.13423C48.048 -0.414125 60.3475 -2.04439 66.3958 4.10125C72.4441 10.2469 70.6177 22.5187 62.8657 35.2219C70.4149 48.0478 72.0456 60.3482 65.8997 66.3968C59.7539 72.4453 47.4814 70.6186 34.7779 62.8659C21.9517 70.4155 9.65098 72.0464 3.60227 65.9004C-2.44645 59.7543 -0.619429 47.4812 7.13398 34.7771ZM33.9925 62.3794C30.3878 64.4703 26.8364 66.082 23.4709 67.1741C15.0856 69.895 8.1167 69.3237 4.18408 65.3278C0.251455 61.3319 -0.208569 54.3548 2.64585 46.014C3.79152 42.6663 5.45968 39.141 7.6079 35.5702C10.6477 40.5813 14.5824 45.6545 19.3018 50.4498C24.021 55.245 29.0306 59.2601 33.9925 62.3794ZM34.7855 61.9122C29.7675 58.8002 24.6787 54.7495 19.8836 49.8772C15.0883 45.0048 11.1192 39.8519 8.08772 34.7847C11.1996 29.7672 15.25 24.6789 20.1218 19.8842C24.9945 15.0887 30.1476 11.1195 35.215 8.08796C40.233 11.1999 45.3216 15.2506 50.1167 20.1228C54.9117 24.9949 58.8805 30.1475 61.912 35.2143C58.7999 40.2327 54.7489 45.3218 49.8762 50.1174C45.0043 54.9121 39.8521 58.8808 34.7855 61.9122ZM35.5709 62.392C39.1413 64.5398 42.666 66.2077 46.0133 67.3532C54.3541 70.2076 61.3312 69.7476 65.3271 65.815C69.323 61.8823 69.8943 54.9134 67.1734 46.5282C66.0814 43.1628 64.4699 39.6117 62.3792 36.0073C59.2597 40.9695 55.2444 45.9796 50.4488 50.6992C45.6541 55.418 40.5815 59.3524 35.5709 62.392ZM62.3917 34.4288C64.5392 30.8589 66.2068 27.3345 67.3522 23.9876C70.2066 15.6469 69.7466 8.66973 65.814 4.67383C61.8814 0.677935 54.9125 0.10661 46.5272 2.82754C43.1624 3.91937 39.6119 5.53055 36.0081 7.62077C40.9698 10.7401 45.9794 14.7551 50.6985 19.5502C55.4175 24.3452 59.352 29.418 62.3917 34.4288ZM34.9993 17.869L35.0463 19.5713C35.2795 28.018 42.072 34.8106 50.5188 35.0438L52.2211 35.0908L50.5188 35.1378C42.072 35.371 35.2795 42.1635 35.0463 50.6103L34.9993 52.3126L34.9523 50.6103C34.7191 42.1635 27.9265 35.371 19.4798 35.1378L17.7775 35.0908L19.4798 35.0438C27.9265 34.8106 34.7191 28.018 34.9523 19.5713L34.9993 17.869Z" fill="white"/>
</svg>
