<svg width="56" height="56" viewBox="0 0 56 56" fill="none" xmlns="http://www.w3.org/2000/svg">
<path d="M25.1322 1.5092C26.6141 -0.304124 29.3859 -0.304124 30.8678 1.5092C31.9895 2.88181 33.9265 3.26711 35.4881 2.42825C37.5511 1.32004 40.1119 2.38076 40.7871 4.62313C41.2981 6.32052 42.9403 7.41778 44.704 7.24036C47.0341 7.00599 48.994 8.96594 48.7596 11.296C48.5822 13.0597 49.6795 14.7019 51.3769 15.2129C53.6192 15.8881 54.68 18.4489 53.5718 20.5119C52.7329 22.0735 53.1182 24.0105 54.4908 25.1322C56.3041 26.6141 56.3041 29.3859 54.4908 30.8678C53.1182 31.9895 52.7329 33.9265 53.5718 35.4881C54.68 37.5511 53.6192 40.1119 51.3769 40.7871C49.6795 41.2981 48.5822 42.9403 48.7596 44.704C48.994 47.0341 47.0341 48.994 44.704 48.7596C42.9403 48.5822 41.2981 49.6795 40.7871 51.3769C40.1119 53.6192 37.5511 54.68 35.4881 53.5718C33.9265 52.7329 31.9895 53.1182 30.8678 54.4908C29.3859 56.3041 26.6141 56.3041 25.1322 54.4908C24.0105 53.1182 22.0735 52.7329 20.5119 53.5718C18.4489 54.68 15.8881 53.6192 15.2129 51.3769C14.7019 49.6795 13.0597 48.5822 11.296 48.7596C8.96594 48.994 7.00599 47.0341 7.24036 44.704C7.41778 42.9403 6.32052 41.2981 4.62313 40.7871C2.38076 40.1119 1.32004 37.5511 2.42825 35.4881C3.26711 33.9265 2.88181 31.9895 1.5092 30.8678C-0.304124 29.3859 -0.304124 26.6141 1.5092 25.1322C2.88181 24.0105 3.26711 22.0735 2.42825 20.5119C1.32004 18.4489 2.38076 15.8881 4.62313 15.2129C6.32052 14.7019 7.41778 13.0597 7.24036 11.296C7.00599 8.96593 8.96593 7.00599 11.296 7.24036C13.0597 7.41778 14.7019 6.32052 15.2129 4.62313C15.8881 2.38076 18.4489 1.32004 20.5119 2.42825C22.0735 3.26711 24.0105 2.88181 25.1322 1.5092Z" fill="white"/>
<path d="M25.5194 1.82559C26.8012 0.257078 29.1988 0.257078 30.4806 1.82559C31.7537 3.38351 33.9523 3.82084 35.7247 2.86872C37.5092 1.91013 39.7243 2.82764 40.3083 4.76728C40.8883 6.69382 42.7522 7.93922 44.7541 7.73785C46.7695 7.53512 48.4649 9.23046 48.2621 11.2459C48.0608 13.2478 49.3062 15.1117 51.2327 15.6917C53.1724 16.2757 54.0899 18.4908 53.1313 20.2753C52.1792 22.0477 52.6165 24.2463 54.1744 25.5194C55.7429 26.8012 55.7429 29.1988 54.1744 30.4806C52.6165 31.7537 52.1792 33.9523 53.1313 35.7247C54.0899 37.5092 53.1724 39.7243 51.2327 40.3083C49.3062 40.8883 48.0608 42.7522 48.2621 44.7541C48.4649 46.7695 46.7695 48.4649 44.7541 48.2621C42.7522 48.0608 40.8883 49.3062 40.3083 51.2327C39.7243 53.1724 37.5092 54.0899 35.7247 53.1313C33.9523 52.1792 31.7537 52.6165 30.4806 54.1744C29.1988 55.7429 26.8012 55.7429 25.5194 54.1744C24.2463 52.6165 22.0477 52.1792 20.2753 53.1313C18.4908 54.0899 16.2757 53.1724 15.6917 51.2327C15.1117 49.3062 13.2478 48.0608 11.2459 48.2621C9.23046 48.4649 7.53512 46.7695 7.73785 44.7541C7.93922 42.7522 6.69382 40.8883 4.76728 40.3083C2.82764 39.7243 1.91013 37.5092 2.86872 35.7247C3.82084 33.9523 3.38351 31.7537 1.82559 30.4806C0.257078 29.1988 0.257078 26.8012 1.82559 25.5194C3.38351 24.2463 3.82084 22.0477 2.86872 20.2753C1.91013 18.4908 2.82764 16.2757 4.76728 15.6917C6.69382 15.1117 7.93922 13.2478 7.73785 11.2459C7.53512 9.23046 9.23046 7.53512 11.2459 7.73785C13.2478 7.93922 15.1117 6.69382 15.6917 4.76728C16.2757 2.82764 18.4908 1.91013 20.2753 2.86872C22.0477 3.82084 24.2463 3.38351 25.5194 1.82559Z" stroke="white" stroke-opacity="0.12"/>
</svg>
