<svg width="41" height="46" viewBox="0 0 41 46" fill="none" xmlns="http://www.w3.org/2000/svg">
<path d="M20.2573 44.0238C18.1761 44.6511 15.9722 44.4264 14.0462 43.3853C12.1202 42.3442 10.7078 40.6126 10.071 38.51C9.97643 38.2014 9.64869 38.0224 9.34016 38.117C9.03163 38.2116 8.85256 38.5393 8.94717 38.8479C9.67222 41.2447 11.2902 43.2269 13.486 44.413C15.6922 45.6031 18.2126 45.8664 20.5992 45.1374C20.9005 45.0459 21.0868 44.715 20.9922 44.4065C20.8904 44.1011 20.5658 43.9292 20.2573 44.0238ZM37.6132 22.6896C37.311 22.7985 37.1526 23.1342 37.2615 23.4363L38.2557 26.2265C39.2905 29.1269 39.0625 32.3414 37.6261 35.0506C36.2696 37.6131 33.9997 39.4875 31.234 40.3255C28.4684 41.1634 25.5401 40.8678 22.9896 39.4804L11.3416 33.1806C11.0583 33.0245 10.7037 33.1311 10.5476 33.4144C10.3915 33.6977 10.4981 34.0522 10.7814 34.2083L22.4294 40.5081C25.2569 42.0373 28.5088 42.3684 31.5687 41.4422C34.6072 40.5255 37.1523 38.4431 38.6545 35.5934C40.2439 32.5937 40.4907 29.0372 39.3542 25.8315L38.3599 23.0413C38.2511 22.7392 37.9154 22.5807 37.6132 22.6896ZM19.4432 41.3502C16.603 42.2127 13.5811 40.5734 12.713 37.7015C12.6184 37.3929 12.2906 37.2139 11.9821 37.3085C11.6736 37.4031 11.4945 37.7308 11.5891 38.0394C12.6464 41.5283 16.3207 43.5187 19.7851 42.4637C20.0865 42.3723 20.2727 42.0414 20.1781 41.7328C20.0866 41.4315 19.7518 41.2556 19.4432 41.3502ZM25.3749 0.522791C25.0664 0.617395 24.8873 0.945141 24.9819 1.25367C25.0765 1.5622 25.4043 1.74127 25.7128 1.64666C30.0171 0.346022 34.5897 2.8173 35.9062 7.15732C36.0008 7.46585 36.3285 7.64492 36.6371 7.55031C36.9385 7.45889 37.1247 7.12796 37.0301 6.81944C35.5212 1.85522 30.2963 -0.967056 25.3749 0.522791ZM27.7399 8.08209C26.9214 8.39518 26.4635 9.24906 26.652 10.1144L28.1973 17.2348L14.2749 9.70684C12.6671 8.82337 10.6168 9.46252 9.76828 11.0719C9.38242 11.7996 9.29014 12.6104 9.46278 13.3631L5.93535 11.4528C4.31647 10.5828 2.27337 11.2188 1.41768 12.8313C0.55802 14.4541 1.17336 16.4893 2.79542 17.3664L3.45091 17.7246C2.70699 18.013 2.09889 18.5489 1.72413 19.2631C0.864475 20.8859 1.47664 22.914 3.09869 23.7911L5.19531 24.9273C4.45139 25.2157 3.84329 25.7516 3.46853 26.4658C2.61205 28.0958 3.22739 30.131 4.84627 31.0009L8.3737 32.9113C8.657 33.0673 9.01153 32.9608 9.16763 32.6775C9.32372 32.3942 9.21719 32.0397 8.93388 31.8836L5.40646 29.9733C4.34783 29.4012 3.94556 28.0751 4.51048 27.0196C5.05717 25.9809 6.38725 25.5683 7.42842 26.1396L17.3044 31.4751C17.5877 31.6312 17.9494 31.5215 18.0983 31.2414C18.2544 30.9581 18.1479 30.6035 17.8646 30.4474L3.65888 22.7634C2.60025 22.1913 2.19798 20.8652 2.76291 19.8098C3.3096 18.771 4.63967 18.3584 5.68084 18.9297L19.8866 26.6137C20.1699 26.7698 20.5244 26.6633 20.6805 26.38C20.8366 26.0967 20.73 25.7421 20.4467 25.586L17.555 24.0085L6.23467 17.8877L3.35242 16.3316C2.2938 15.7595 1.89153 14.4334 2.45645 13.378C3.00314 12.3392 4.33322 11.9266 5.37439 12.4979L19.5801 20.1819L22.4655 21.7452C22.7488 21.9013 23.1105 21.7916 23.2595 21.5115C23.4155 21.2281 23.309 20.8736 23.0257 20.7175L11.6991 14.5825C10.6404 14.0104 10.2382 12.6843 10.8031 11.6289C11.3498 10.5901 12.6799 10.1775 13.721 10.7488L28.1934 18.5707C28.1427 18.7643 28.0715 18.9499 27.9764 19.1206C27.0668 20.8426 26.5493 22.7921 26.4863 24.7444C26.4233 26.6967 26.8173 28.6765 27.6149 30.468L27.723 30.7107C27.8533 31.0033 28.204 31.138 28.4966 31.0077C28.7893 30.8774 28.9239 30.5267 28.7936 30.234L28.6856 29.9913C27.9539 28.3672 27.6044 26.5642 27.6596 24.7864C27.7148 23.0087 28.1856 21.2425 29.0183 19.6744C29.4383 18.8888 29.5598 17.9708 29.3752 17.0952L27.8101 9.8725C27.7464 9.57585 27.9025 9.29254 28.1801 9.18606C29.1088 8.83244 30.1219 8.86033 31.0265 9.2786C31.9486 9.69764 32.6416 10.4667 32.9833 11.4263L36.3555 20.8635C36.4643 21.1657 36.8 21.3241 37.1022 21.2152C37.4043 21.1063 37.5628 20.7707 37.4539 20.4685L34.0818 11.0314C33.6312 9.76953 32.7174 8.77375 31.5113 8.21607C30.3019 7.65124 28.9676 7.61245 27.7399 8.08209ZM26.1787 3.19248C25.8701 3.28708 25.6911 3.61483 25.7857 3.92336C25.8803 4.23188 26.208 4.41095 26.5165 4.31635C29.3639 3.45059 32.3858 5.08993 33.254 7.96187C33.3486 8.27039 33.6763 8.44946 33.9848 8.35486C34.2862 8.26343 34.4724 7.93251 34.3778 7.62398C33.3173 4.12786 29.6391 2.14783 26.1787 3.19248Z" fill="white" stroke="white" stroke-width="0.2"/>
</svg>
