<svg width="15" height="16" viewBox="0 0 15 16" fill="none" xmlns="http://www.w3.org/2000/svg">
<path d="M11.5004 5.2C12.6602 5.2 13.6004 4.2598 13.6004 3.1C13.6004 1.9402 12.6602 1 11.5004 1C10.3406 1 9.40039 1.9402 9.40039 3.1C9.40039 4.2598 10.3406 5.2 11.5004 5.2Z" stroke="#19191A" stroke-width="1.5" stroke-linecap="round" stroke-linejoin="round"/>
<path d="M3.1 10.0999C4.2598 10.0999 5.2 9.1597 5.2 7.9999C5.2 6.8401 4.2598 5.8999 3.1 5.8999C1.9402 5.8999 1 6.8401 1 7.9999C1 9.1597 1.9402 10.0999 3.1 10.0999Z" stroke="#19191A" stroke-width="1.5" stroke-linecap="round" stroke-linejoin="round"/>
<path d="M11.5004 14.9998C12.6602 14.9998 13.6004 14.0596 13.6004 12.8998C13.6004 11.74 12.6602 10.7998 11.5004 10.7998C10.3406 10.7998 9.40039 11.74 9.40039 12.8998C9.40039 14.0596 10.3406 14.9998 11.5004 14.9998Z" stroke="#19191A" stroke-width="1.5" stroke-linecap="round" stroke-linejoin="round"/>
<path d="M4.91211 9.05688L9.69311 11.8429" stroke="#19191A" stroke-width="1.5" stroke-linecap="round" stroke-linejoin="round"/>
<path d="M9.68611 4.15674L4.91211 6.94274" stroke="#19191A" stroke-width="1.5" stroke-linecap="round" stroke-linejoin="round"/>
</svg>
