<svg width="90" height="66" viewBox="0 0 90 66" fill="none" xmlns="http://www.w3.org/2000/svg">
<path d="M0 42.6672C0 27.2282 7.2986 14.2644 21.8957 3.77586C25.3156 1.25862 27.8597 0 29.528 0C30.6957 0 31.2796 0.755172 31.2796 2.26552C31.2796 3.69195 31.0294 4.7408 30.5289 5.41207C30.1118 5.99943 29.5697 6.54483 28.9024 7.04828C28.2351 7.55172 27.5678 8.01322 26.9005 8.43276C26.2332 8.8523 25.4408 9.48161 24.5232 10.3207C16.3488 17.369 12.2616 24.2494 12.2616 30.9621C12.2616 34.5701 13.7213 36.3741 16.6408 36.3741C28.9024 36.3741 35.0332 41.4506 35.0332 51.6034C35.0332 55.5471 33.5317 58.9034 30.5289 61.6724C27.5261 64.3575 24.2313 65.7 20.6445 65.7C14.055 65.7 8.96682 63.1408 5.3801 58.0224C1.79337 52.8201 0 47.7017 0 42.6672ZM55.0919 42.6672C55.0919 26.9764 62.182 14.1385 76.3621 4.15345C79.6986 1.38448 82.2009 0 83.8692 0C85.5374 0 86.3716 0.755172 86.3716 2.26552C86.3716 3.69195 86.1213 4.69885 85.6208 5.28621C85.2038 5.87356 84.6616 6.46092 83.9943 7.04827C83.327 7.55172 82.6597 8.01322 81.9924 8.43276C81.3251 8.8523 80.5744 9.48161 79.7403 10.3207C71.3156 17.8724 67.1033 24.7529 67.1033 30.9621C67.1033 34.5701 68.6464 36.3741 71.7327 36.3741C83.9109 36.3741 90 41.4086 90 51.4776C90 55.3374 88.4986 58.6937 85.4957 61.5465C82.5763 64.3155 79.2815 65.7 75.6114 65.7C69.1886 65.7 64.1422 63.1828 60.472 58.1483C56.8853 53.0299 55.0919 47.8695 55.0919 42.6672Z" fill="#19191A" fill-opacity="0.1"/>
</svg>
