<svg width="130" height="130" viewBox="0 0 130 130" fill="none" xmlns="http://www.w3.org/2000/svg">
<path d="M58.6957 3.50452C61.9534 -0.481752 68.0466 -0.481752 71.3043 3.50452C74.073 6.89259 78.8543 7.84365 82.7089 5.77305C87.2441 3.33685 92.8735 5.66865 94.3577 10.5981C95.6191 14.7879 99.6725 17.4963 104.026 17.0583C109.148 16.5431 113.457 20.8517 112.942 25.9739C112.504 30.3275 115.212 34.3809 119.402 35.6423C124.331 37.1265 126.663 42.7559 124.227 47.2911C122.156 51.1456 123.107 55.927 126.495 58.6957C130.482 61.9534 130.482 68.0466 126.495 71.3043C123.107 74.073 122.156 78.8543 124.227 82.7089C126.663 87.2441 124.331 92.8735 119.402 94.3577C115.212 95.6191 112.504 99.6725 112.942 104.026C113.457 109.148 109.148 113.457 104.026 112.942C99.6725 112.504 95.6191 115.212 94.3577 119.402C92.8735 124.331 87.2441 126.663 82.7089 124.227C78.8543 122.156 74.073 123.107 71.3043 126.495C68.0466 130.482 61.9534 130.482 58.6957 126.495C55.927 123.107 51.1456 122.156 47.2911 124.227C42.7559 126.663 37.1265 124.331 35.6423 119.402C34.3809 115.212 30.3275 112.504 25.9739 112.942C20.8517 113.457 16.5431 109.148 17.0583 104.026C17.4963 99.6725 14.7879 95.6191 10.5981 94.3577C5.66864 92.8735 3.33685 87.2441 5.77305 82.7089C7.84365 78.8543 6.89259 74.073 3.50452 71.3043C-0.481752 68.0466 -0.481752 61.9534 3.50452 58.6957C6.89259 55.927 7.84365 51.1456 5.77305 47.2911C3.33685 42.7559 5.66865 37.1265 10.5981 35.6423C14.7879 34.3809 17.4963 30.3275 17.0583 25.9739C16.5431 20.8517 20.8517 16.5431 25.9739 17.0583C30.3275 17.4963 34.3809 14.7879 35.6423 10.5981C37.1265 5.66865 42.7559 3.33685 47.2911 5.77305C51.1456 7.84365 55.927 6.89259 58.6957 3.50452Z" stroke="white" stroke-opacity="0.12"/>
</svg>
